<svg width="1200" height="630" viewBox="0 0 1200 630" xmlns="http://www.w3.org/2000/svg">
  <defs>
    <linearGradient id="bg" x1="0" y1="0" x2="1" y2="1">
      <stop offset="0%" stop-color="#0A2540"/>
      <stop offset="100%" stop-color="#1A3B5C"/>
    </linearGradient>
    <linearGradient id="teal" x1="0" y1="0" x2="1" y2="0">
      <stop offset="0%" stop-color="#00D4AA"/>
      <stop offset="100%" stop-color="#00A884"/>
    </linearGradient>
  </defs>

  <rect width="1200" height="630" fill="url(#bg)"/>
  <rect x="0" y="0" width="1200" height="10" fill="url(#teal)"/>

  <!-- Issuer wordmark -->
  <g transform="translate(90,96)">
    <rect width="56" height="56" rx="14" fill="url(#teal)"/>
    <path d="M16 34c0-7 6-12 13-12 1-6 7-10 13-9 5 1 9 5 9 11 4 0 7 3 7 7 0 4-3 7-7 7H20c-3 0-6-3-6-7z" fill="#ffffff" transform="translate(-2,-2) scale(0.95)"/>
    <text x="74" y="38" font-family="Helvetica, Arial, sans-serif" font-size="30" font-weight="700" fill="#ffffff">Cloud Exam Lab</text>
  </g>

  <!-- Verified pill -->
  <g transform="translate(940,104)">
    <rect width="170" height="44" rx="22" fill="rgba(0,212,170,0.15)" stroke="#00D4AA" stroke-opacity="0.4"/>
    <circle cx="30" cy="22" r="10" fill="none" stroke="#00D4AA" stroke-width="3"/>
    <path d="M25 22l4 4 7-8" fill="none" stroke="#00D4AA" stroke-width="3" stroke-linecap="round" stroke-linejoin="round"/>
    <text x="52" y="29" font-family="Helvetica, Arial, sans-serif" font-size="18" font-weight="700" letter-spacing="1" fill="#7fffe4">VERIFIED</text>
  </g>

  <!-- Main credential statement -->
  <text x="90" y="300" font-family="Helvetica, Arial, sans-serif" font-size="34" fill="rgba(255,255,255,0.6)">A verified Readiness credential</text>
  <text x="90" y="392" font-family="Helvetica, Arial, sans-serif" font-size="76" font-weight="800" fill="#ffffff">Proof you put in</text>
  <text x="90" y="478" font-family="Helvetica, Arial, sans-serif" font-size="76" font-weight="800" fill="url(#teal)">the work.</text>

  <!-- Footer -->
  <text x="90" y="572" font-family="Helvetica, Arial, sans-serif" font-size="24" fill="rgba(255,255,255,0.45)">Completed the study program · Passed the final mock exam</text>
</svg>
